<?xml version="1.0" standalone="no"?><svg xmlns="http://www.w3.org/2000/svg" viewBox="0 0 1440 320"><path fill="#0c63e4" fill-opacity="1" d="M0,128L34.3,144C68.6,160,137,192,206,181.3C274.3,171,343,117,411,101.3C480,85,549,107,617,96C685.7,85,754,43,823,42.7C891.4,43,960,85,1029,101.3C1097.1,117,1166,107,1234,106.7C1302.9,107,1371,117,1406,122.7L1440,128L1440,0L1405.7,0C1371.4,0,1303,0,1234,0C1165.7,0,1097,0,1029,0C960,0,891,0,823,0C754.3,0,686,0,617,0C548.6,0,480,0,411,0C342.9,0,274,0,206,0C137.1,0,69,0,34,0L0,0Z"></path></svg>