<?xml version="1.0" standalone="no"?><svg xmlns="http://www.w3.org/2000/svg" viewBox="0 0 1440 320"><path fill="#0c63e4" fill-opacity="1" d="M0,256L18.5,256C36.9,256,74,256,111,250.7C147.7,245,185,235,222,213.3C258.5,192,295,160,332,144C369.2,128,406,128,443,149.3C480,171,517,213,554,213.3C590.8,213,628,171,665,154.7C701.5,139,738,149,775,144C812.3,139,849,117,886,117.3C923.1,117,960,139,997,154.7C1033.8,171,1071,181,1108,197.3C1144.6,213,1182,235,1218,224C1255.4,213,1292,171,1329,144C1366.2,117,1403,107,1422,101.3L1440,96L1440,0L1421.5,0C1403.1,0,1366,0,1329,0C1292.3,0,1255,0,1218,0C1181.5,0,1145,0,1108,0C1070.8,0,1034,0,997,0C960,0,923,0,886,0C849.2,0,812,0,775,0C738.5,0,702,0,665,0C627.7,0,591,0,554,0C516.9,0,480,0,443,0C406.2,0,369,0,332,0C295.4,0,258,0,222,0C184.6,0,148,0,111,0C73.8,0,37,0,18,0L0,0Z"></path></svg>